<svg xmlns="http://www.w3.org/2000/svg" width="200.1" height="376.2" viewBox="19.3 4.8 200.1 376.2"><linearGradient id="a" gradientUnits="userSpaceOnUse" x1="-95.494" y1="-24.479" x2="60.277" y2="83.696" gradientTransform="translate(16.531 98.316) scale(.4594)"><stop offset="0" stop-color="#4c5854"/><stop offset=".04" stop-color="#444e4b"/><stop offset=".108" stop-color="#3a403e"/><stop offset=".188" stop-color="#313534"/><stop offset=".28" stop-color="#2b2d2c"/><stop offset=".394" stop-color="#262726"/><stop offset=".555" stop-color="#232323"/><stop offset="1" stop-color="#222"/></linearGradient><path fill="url(#a)" d="M188.2 370.7H50.5c-13.8 0-25-11.2-25-25V32.1c0-13.8 11.2-25 25-25h137.6c13.8 0 25 11.2 25 25v313.6c.1 13.8-11.2 25-24.9 25z"/><path fill="none" stroke="#222" stroke-width=".5" stroke-miterlimit="10" d="M188.2 370.7H50.5c-13.8 0-25-11.2-25-25V32.1c0-13.8 11.2-25 25-25h137.6c13.8 0 25 11.2 25 25v313.6c.1 13.8-11.2 25-24.9 25z"/><path fill="#FFF" d="M202.9 343.9H36.3c-1.4 0-2.6-1.2-2.6-2.6V43.1c0-1.4 1.2-2.6 2.6-2.6h166.5c1.4 0 2.6 1.2 2.6 2.6v298.2c.1 1.4-1.1 2.6-2.5 2.6z"/><g fill="#4C5854"><path d="M145.1 21.9H90.9c-1.5 0-2.6-1.2-2.6-2.6 0-1.5 1.2-2.6 2.6-2.6H145c1.5 0 2.6 1.2 2.6 2.6.1 1.4-1.1 2.6-2.5 2.6z"/><ellipse cx="159.4" cy="18.8" rx="2" ry="2"/><ellipse cx="176.2" cy="19.3" rx="2.6" ry="2.7"/><path d="M79.6 21.9h-6.8c-1.5 0-2.6-1.2-2.6-2.6 0-1.5 1.2-2.6 2.6-2.6h6.8c1.5 0 2.6 1.2 2.6 2.6.1 1.4-1.1 2.6-2.6 2.6z"/><ellipse cx="62.4" cy="19.3" rx="2.6" ry="2.7"/><path d="M145.1 361.2H90.9c-1.5 0-2.6-1.2-2.6-2.6 0-1.5 1.2-2.6 2.6-2.6H145c1.5 0 2.6 1.2 2.6 2.6.1 1.4-1.1 2.6-2.5 2.6z"/></g></svg>